<svg width="22" height="22" viewBox="0 0 22 22" fill="none" xmlns="http://www.w3.org/2000/svg">
<path fill-rule="evenodd" clip-rule="evenodd" d="M11.0001 0.916504C5.43133 0.916504 0.916748 5.43109 0.916748 10.9998C0.916748 16.5686 5.43133 21.0832 11.0001 21.0832C16.5688 21.0832 21.0834 16.5686 21.0834 10.9998C21.0834 5.43109 16.5688 0.916504 11.0001 0.916504ZM7.9815 8.97675C7.80861 8.80978 7.57706 8.71738 7.33671 8.71947C7.09637 8.72156 6.86646 8.81796 6.6965 8.98792C6.52654 9.15788 6.43013 9.38779 6.42805 9.62814C6.42596 9.86848 6.51835 10.1 6.68533 10.2729L10.352 13.9396C10.5239 14.1114 10.757 14.208 11.0001 14.208C11.2431 14.208 11.4763 14.1114 11.6482 13.9396L15.3148 10.2729C15.4818 10.1 15.5742 9.86848 15.5721 9.62814C15.57 9.38779 15.4736 9.15788 15.3037 8.98792C15.1337 8.81796 14.9038 8.72156 14.6634 8.71947C14.4231 8.71738 14.1915 8.80978 14.0187 8.97675L11.0001 11.9953L7.9815 8.97675Z" fill="#131316"/>
</svg>
